<?xml version="1.0" encoding="UTF-8"?>
<svg id="Layer_1" xmlns="http://www.w3.org/2000/svg" xmlns:xlink="http://www.w3.org/1999/xlink" version="1.1" viewBox="0 0 1366 561.64">
  <!-- Generator: Adobe Illustrator 29.8.1, SVG Export Plug-In . SVG Version: 2.1.1 Build 2)  -->
  <defs>
    <style>
      .st0, .st1 {
        fill: none;
      }

      .st2 {
        letter-spacing: 0em;
      }

      .st3 {
        fill: #14748a;
      }

      .st4 {
        clip-path: url(#clippath-1);
      }

      .st5 {
        font-family: DINNextW1G-UltraLight, 'DIN Next W1G';
        font-size: 90.32px;
        font-weight: 100;
      }

      .st1 {
        stroke: #14748a;
        stroke-miterlimit: 10;
        stroke-width: 8.38px;
      }

      .st6 {
        letter-spacing: -.05em;
      }

      .st7 {
        letter-spacing: -.05em;
      }

      .st8 {
        letter-spacing: -.05em;
      }

      .st9 {
        letter-spacing: -.05em;
      }

      .st10 {
        letter-spacing: -.05em;
      }

      .st11 {
        clip-path: url(#clippath);
      }
    </style>
    <clipPath id="clippath">
      <rect class="st0" x="4.7" y="122.98" width="1356.61" height="431.96"/>
    </clipPath>
    <clipPath id="clippath-1">
      <rect class="st0" x="4.7" y="122.98" width="1356.61" height="431.96"/>
    </clipPath>
  </defs>
  <g class="st11">
    <path class="st3" d="M176.27,549.43c-3,0-5-2-5-5v-34.48h-.5c-11.49,25.49-32.98,44.48-75.46,44.48s-68.46-18.99-80.46-56.47c-6.5-19.99-8.5-42.98-8.5-66.96s2-46.98,8.5-66.96c11.99-37.48,37.98-56.47,80.46-56.47s63.97,18.99,75.46,44.48h.5v-137.43c0-3,2-5,5-5h5c3,0,5,2,5,5v329.83c0,3-2,5-5,5h-5ZM164.78,492.96c4.5-13.99,6.5-33.98,6.5-61.97s-2-47.98-6.5-61.97c-10.49-31.98-35.48-47.48-68.46-47.48s-57.47,16.99-67.46,47.48c-5.5,16.99-7.5,40.98-7.5,61.97s2,44.98,7.5,61.97c9.99,30.48,32.98,47.48,67.46,47.48s57.97-15.49,68.46-47.48Z"/>
    <path class="st3" d="M250.73,493.46c-4.5-13.99-7-29.98-7-62.97s2.5-49.47,7-62.97c12.99-39.48,43.48-59.97,83.96-59.97s70.96,19.99,83.96,59.97c4.5,13.49,7,28.98,7,58.97,0,3-2,5-5.5,5h-158.42c-2,0-3,1.5-3,3.5,0,26.49,2,40.48,6,53.47,11.99,35.98,37.98,51.97,72.96,51.97,32.98,0,56.97-14.49,71.46-34.48,2-2.5,4.5-3,7-1l3,2.5c2.5,2,2.5,4.5.5,7-16.49,23.49-44.48,39.98-81.96,39.98-43.98,0-73.96-20.49-86.96-60.97ZM407.65,417.5c2,0,3-1,3-3,0-16.99-2-29.98-5.5-41.48-10.99-34.48-35.98-51.47-70.46-51.47s-59.47,16.99-70.46,51.47c-3.5,11.49-5.5,24.49-5.5,41.48,0,2,1,3,3,3h145.92Z"/>
    <g>
      <path d="M663.54,549.43c-4,0-6-1.5-7.5-5l-64.97-132.43h-58.47c-2,0-3,1-3,3v129.43c0,3-2,5-5,5h-48.97c-3,0-5-2-5-5V214.61c0-3,2-5,5-5h131.43c62.47,0,108.44,41.48,108.44,101.45,0,44.48-25.49,78.96-64.47,93.45l71.46,138.43c2,3.5,0,6.5-3.5,6.5h-55.47ZM657.04,311.06c0-29.48-20.99-48.47-51.97-48.47h-72.46c-2,0-3,1-3,3v90.45c0,2,1,3,3,3h72.46c30.98,0,51.97-18.99,51.97-47.98Z"/>
      <path d="M759.98,549.43c-3,0-5-2-5-5v-230.88c0-3,2-5,5-5h45.98c3,0,5,2,5,5v230.88c0,3-2,5-5,5h-45.98Z"/>
      <path d="M842.43,509.95c-2-2-3-5-1-7.5l30.98-35.98c2-2.5,5-2.5,7-.5,21.99,17.49,54.47,35.98,92.45,35.98,40.48,0,63.97-20.49,63.97-48.97,0-24.49-14.99-40.48-61.97-46.98l-17.99-2.5c-65.47-9-102.45-40.48-102.45-96.95,0-61.47,44.98-102.45,114.94-102.45,42.48,0,82.96,13.49,109.94,33.98,2.5,2,3,4,1,7l-23.99,36.98c-2,2.5-4.5,3-7,1.5-27.49-17.99-52.97-26.49-81.46-26.49-34.48,0-53.47,18.99-53.47,45.48,0,23.49,16.49,39.48,62.47,45.98l17.99,2.5c65.47,9,101.45,39.98,101.45,98.45s-43.48,105.45-127.93,105.45c-49.97,0-98.45-19.99-124.93-44.98Z"/>
    </g>
    <path d="M1118.77,379.52c0-53.97,2-70.96,9-91.95,17.49-55.47,60.47-83.46,117.94-83.46,54.47,0,95.45,27.99,114.94,72.96,1,2.5,0,5-2.5,6l-42.48,20.49c-3,1.5-5.5,0-6.5-2.5-10.99-23.99-29.98-43.98-63.47-43.98s-51.47,17.49-60.97,44.98c-4.5,13.99-6,27.49-6,77.46s1.5,63.47,6,77.46c9.5,27.49,28.49,44.98,60.97,44.98s52.47-19.99,63.47-43.98c1-2.5,3.5-4,6.5-2.5l42.48,20.49c2.5,1,3.5,3.5,2.5,6-19.49,44.98-60.47,72.96-114.94,72.96-57.47,0-100.45-27.99-117.94-83.46-7-20.99-9-37.98-9-91.95Z"/>
  </g>
  <g class="st4">
    <text class="st5" transform="translate(3.91 647.28) scale(1 1.27)"><tspan class="st7" x="0" y="0">Res</tspan><tspan x="129.87" y="0">i</tspan></text>
    <text class="st5" transform="translate(149.88 647.28) scale(1 1.27)"><tspan x="0" y="0">l</tspan></text>
    <text class="st5" transform="translate(167.91 647.28) scale(1 1.27)"><tspan class="st8" x="0" y="0">i</tspan><tspan x="16.35" y="0">e</tspan></text>
    <text class="st5" transform="translate(224.47 647.28) scale(1 1.27)"><tspan x="0" y="0">n</tspan></text>
    <text class="st5" transform="translate(268.66 647.28) scale(1 1.27)"><tspan class="st7" x="0" y="0">ce </tspan><tspan x="96.45" y="0">I</tspan></text>
    <text class="st5" transform="translate(381.6 647.28) scale(1 1.27)"><tspan class="st9" x="0" y="0">n</tspan><tspan x="44.16" y="0">t</tspan></text>
    <text class="st5" transform="translate(449 647.28) scale(1 1.27)"><tspan class="st10" x="0" y="0">e</tspan><tspan x="40.28" y="0">l</tspan></text>
    <text class="st5" transform="translate(507.25 647.28) scale(1 1.27)"><tspan class="st8" x="0" y="0">l</tspan><tspan class="st10" x="18.06" y="0">i</tspan><tspan x="34.5" y="0">g</tspan></text>
    <text class="st5" transform="translate(583.94 647.28) scale(1 1.27)"><tspan x="0" y="0">e</tspan></text>
    <text class="st5" transform="translate(624.13 647.28) scale(1 1.27)"><tspan x="0" y="0">n</tspan></text>
    <text class="st5" transform="translate(668.29 647.28) scale(1 1.27)"><tspan class="st10" x="0" y="0">c</tspan><tspan x="37.93" y="0">e</tspan></text>
    <text class="st5" transform="translate(746.32 647.28) scale(1 1.27)"><tspan x="0" y="0"> </tspan></text>
    <text class="st5" transform="translate(764.47 647.28) scale(1 1.27)"><tspan x="0" y="0">f</tspan></text>
    <text class="st5" transform="translate(786.5 647.28) scale(1 1.27)"><tspan x="0" y="0">o</tspan></text>
    <text class="st5" transform="translate(827.32 647.28) scale(1 1.27)"><tspan x="0" y="0">r</tspan></text>
    <text class="st5" transform="translate(857.47 647.28) scale(1 1.27)"><tspan x="0" y="0"> </tspan></text>
    <text class="st5" transform="translate(875.57 647.28) scale(1 1.27)"><tspan class="st9" x="0" y="0">Su</tspan><tspan x="93.29" y="0">p</tspan></text>
    <text class="st5" transform="translate(1011.57 647.28) scale(1 1.27)"><tspan class="st6" x="0" y="0">p</tspan><tspan class="st2" x="42.9" y="0">l</tspan></text>
    <text class="st5" transform="translate(1072.41 647.28) scale(1 1.27)"><tspan x="0" y="0">y</tspan></text>
    <text class="st5" transform="translate(1109.47 647.28) scale(1 1.27)"><tspan x="0" y="0"> </tspan></text>
    <text class="st5" transform="translate(1127.5 647.28) scale(1 1.27)"><tspan x="0" y="0">C</tspan></text>
    <text class="st5" transform="translate(1172.54 647.28) scale(1 1.27)"><tspan x="0" y="0">h</tspan></text>
    <text class="st5" transform="translate(1216.6 647.28) scale(1 1.27)"><tspan class="st9" x="0" y="0">a</tspan><tspan x="41.54" y="0">i</tspan></text>
    <text class="st5" transform="translate(1274.29 647.28) scale(1 1.27)"><tspan x="0" y="0">n</tspan></text>
    <text class="st5" transform="translate(1318.38 647.28) scale(1 1.27)"><tspan x="0" y="0">s</tspan></text>
    <text class="st5" transform="translate(1356.75 647.28) scale(1 1.27)"><tspan x="0" y="0"> </tspan></text>
  </g>
  <g>
    <path class="st3" d="M813.17,251.41c-10.28,2.79-21.11,4.22-32.22,4.22-68.59,0-124.37-55.78-124.37-124.3S712.36,6.95,780.95,6.95c11.1,0,21.93,1.5,32.22,4.29v9.13c-10.22-3-21.05-4.56-32.22-4.56-63.68,0-115.52,51.83-115.52,115.52s51.83,115.52,115.52,115.52c11.17,0,22-1.63,32.22-4.56"/>
    <rect class="st3" x="777.32" y="11.43" width="13.4" height="239.82"/>
    <path class="st3" d="M780.93,246.82c-30.72,0-56.6-52.92-56.6-115.52s25.88-115.52,56.6-115.52c1.5,0,2.93.14,4.43.41V7.27c-1.5-.2-2.93-.27-4.43-.27-36.71,0-65.46,54.56-65.46,124.3s28.74,124.3,65.46,124.3c1.5,0,2.93-.07,4.43-.27v-8.92c-1.5.27-2.93.41-4.43.41"/>
    <path class="st3" d="M780.93,66.22c-33.03,0-64.84-4.97-91.88-14.3l-2.86,8.31c27.93,9.67,60.69,14.78,94.74,14.78,1.16,0,2.32,0,3.41-.07v-8.79c-1.09,0-2.25.07-3.41.07"/>
    <rect class="st3" x="661.01" y="126.95" width="123.35" height="8.79"/>
    <path class="st3" d="M780.93,187.58c-34.06,0-66.82,5.11-94.74,14.78l2.86,8.38c27.04-9.4,58.78-14.37,91.88-14.37,1.16,0,2.32.07,3.41.07v-8.79c-1.09,0-2.25-.07-3.41-.07"/>
    <polyline class="st1" points="773.24 70.6 844.62 70.6 860.36 53.91"/>
    <polyline class="st1" points="887.58 88.72 860.4 88.72 844.6 70.6"/>
    <polyline class="st1" points="779.09 131.31 826.77 131.31 845.5 150.04 855.45 140.1"/>
    <polyline class="st1" points="781.46 161.13 834.52 161.13 845.9 149.76"/>
    <polyline class="st1" points="780.75 192 844.57 192 861.53 175.04 885.85 175.04"/>
    <line class="st1" x1="861.56" y1="210.13" x2="843.98" y2="192.56"/>
    <line class="st1" x1="810.53" y1="101.22" x2="781.99" y2="101.22"/>
    <path class="st1" d="M834.3,20.37c0,6.33-5.11,11.44-11.44,11.44s-11.44-5.11-11.44-11.44,5.11-11.44,11.44-11.44,11.44,5.11,11.44,11.44Z"/>
    <path class="st1" d="M880.85,45.17c0,6.33-5.11,11.44-11.44,11.44s-11.44-5.11-11.44-11.44,5.11-11.44,11.44-11.44,11.44,5.11,11.44,11.44Z"/>
    <path class="st1" d="M910.49,88.05c0,6.33-5.11,11.44-11.44,11.44s-11.44-5.11-11.44-11.44,5.11-11.44,11.44-11.44,11.44,5.11,11.44,11.44Z"/>
    <path class="st1" d="M835.15,100.95c0,6.33-5.11,11.44-11.44,11.44s-11.44-5.11-11.44-11.44,5.11-11.44,11.44-11.44,11.44,5.11,11.44,11.44Z"/>
    <path class="st1" d="M876.13,129.21c0,6.33-5.11,11.44-11.44,11.44s-11.44-5.11-11.44-11.44,5.11-11.44,11.44-11.44,11.44,5.11,11.44,11.44Z"/>
    <path class="st1" d="M911.01,173.49c0,6.33-5.11,11.44-11.44,11.44s-11.44-5.11-11.44-11.44,5.11-11.44,11.44-11.44,11.44,5.11,11.44,11.44Z"/>
    <path class="st1" d="M881.83,218.56c0,6.33-5.11,11.44-11.44,11.44s-11.44-5.11-11.44-11.44,5.11-11.44,11.44-11.44,11.44,5.11,11.44,11.44Z"/>
    <path class="st1" d="M834.3,242.99c0,6.33-5.11,11.44-11.44,11.44s-11.44-5.11-11.44-11.44,5.11-11.44,11.44-11.44,11.44,5.11,11.44,11.44Z"/>
  </g>
</svg>