<?xml version="1.0" encoding="utf-8"?>
<!-- Generator: Adobe Illustrator 29.8.2, SVG Export Plug-In . SVG Version: 9.03 Build 0)  -->
<svg version="1.0" id="Layer_1" xmlns="http://www.w3.org/2000/svg" xmlns:xlink="http://www.w3.org/1999/xlink" x="0px" y="0px"
	 viewBox="0 0 512 512" style="enable-background:new 0 0 512 512;" xml:space="preserve">
<style type="text/css">
	.st0{fill:#14748A;}
	.st1{fill:none;stroke:#14748A;stroke-width:16.2706;stroke-miterlimit:10;}
</style>
<g>
	<path class="st0" d="M313.03,489.22c-19.96,5.42-40.99,8.19-62.56,8.19C117.3,497.42,9,389.12,9,256.08s108.3-241.5,241.48-241.5
		c21.55,0,42.58,2.91,62.56,8.33v17.73c-19.84-5.82-40.87-8.85-62.56-8.85c-123.64,0-224.29,100.63-224.29,224.29
		s100.63,224.29,224.29,224.29c21.69,0,42.72-3.16,62.56-8.85"/>
	<rect x="243.43" y="23.28" class="st0" width="26.02" height="465.63"/>
	<path class="st0" d="M250.44,480.31c-59.65,0-109.89-102.75-109.89-224.29S190.79,31.73,250.44,31.73c2.91,0,5.69,0.27,8.6,0.8
		V15.2c-2.91-0.39-5.69-0.52-8.6-0.52c-71.28,0-127.1,105.93-127.1,241.34s55.8,241.34,127.1,241.34c2.91,0,5.69-0.14,8.6-0.52
		v-17.32C256.13,480.04,253.35,480.31,250.44,480.31"/>
	<path class="st0" d="M250.44,129.66c-64.13,0-125.89-9.65-178.39-27.76l-5.55,16.13c54.23,18.78,117.84,28.7,183.95,28.7
		c2.25,0,4.5,0,6.62-0.14v-17.07C254.94,129.52,252.69,129.66,250.44,129.66"/>
	<rect x="17.6" y="247.57" class="st0" width="239.5" height="17.07"/>
	<path class="st0" d="M250.44,365.29c-66.13,0-129.74,9.92-183.95,28.7l5.55,16.27c52.5-18.25,114.13-27.9,178.39-27.9
		c2.25,0,4.5,0.14,6.62,0.14v-17.07C254.94,365.43,252.69,365.29,250.44,365.29"/>
	<polyline class="st1" points="235.51,138.16 374.1,138.16 404.66,105.76 	"/>
	<polyline class="st1" points="457.51,173.35 404.74,173.35 374.06,138.16 	"/>
	<polyline class="st1" points="246.86,256.04 339.44,256.04 375.81,292.4 395.13,273.11 	"/>
	<polyline class="st1" points="251.47,313.94 354.49,313.94 376.58,291.86 	"/>
	<polyline class="st1" points="250.09,373.87 374,373.87 406.93,340.94 454.15,340.94 	"/>
	<line class="st1" x1="406.99" y1="409.08" x2="372.85" y2="374.96"/>
	<line class="st1" x1="307.91" y1="197.62" x2="252.5" y2="197.62"/>
	<path class="st1" d="M354.06,40.64c0,12.29-9.92,22.21-22.21,22.21c-12.29,0-22.21-9.92-22.21-22.21s9.92-22.21,22.21-22.21
		C344.14,18.43,354.06,28.35,354.06,40.64z"/>
	<path class="st1" d="M444.44,88.79c0,12.29-9.92,22.21-22.21,22.21c-12.29,0-22.21-9.92-22.21-22.21s9.92-22.21,22.21-22.21
		C434.52,66.58,444.44,76.5,444.44,88.79z"/>
	<path class="st1" d="M501.99,172.05c0,12.29-9.92,22.21-22.21,22.21c-12.29,0-22.21-9.92-22.21-22.21s9.92-22.21,22.21-22.21
		C492.07,149.83,501.99,159.76,501.99,172.05z"/>
	<path class="st1" d="M355.71,197.09c0,12.29-9.92,22.21-22.21,22.21c-12.29,0-22.21-9.92-22.21-22.21s9.92-22.21,22.21-22.21
		C345.79,174.88,355.71,184.8,355.71,197.09z"/>
	<path class="st1" d="M435.28,251.96c0,12.29-9.92,22.21-22.21,22.21c-12.29,0-22.21-9.92-22.21-22.21
		c0-12.29,9.92-22.21,22.21-22.21C425.36,229.75,435.28,239.67,435.28,251.96z"/>
	<path class="st1" d="M503,337.94c0,12.29-9.92,22.21-22.21,22.21c-12.29,0-22.21-9.92-22.21-22.21c0-12.29,9.92-22.21,22.21-22.21
		C493.08,315.72,503,325.64,503,337.94z"/>
	<path class="st1" d="M446.34,425.44c0,12.29-9.92,22.21-22.21,22.21s-22.21-9.92-22.21-22.21c0-12.29,9.92-22.21,22.21-22.21
		S446.34,413.15,446.34,425.44z"/>
	<path class="st1" d="M354.06,472.88c0,12.29-9.92,22.21-22.21,22.21c-12.29,0-22.21-9.92-22.21-22.21
		c0-12.29,9.92-22.21,22.21-22.21C344.14,450.66,354.06,460.59,354.06,472.88z"/>
</g>
</svg>
